<svg xmlns="http://www.w3.org/2000/svg" width="400" height="400" viewBox="0 0 400 400">
  <!-- Van body -->
  <path d="M55 240 L55 195 Q55 175 75 168 L150 155 Q165 130 185 120 L295 120 Q330 120 345 155 L355 175 Q370 180 372 195 L372 240 Z" fill="none" stroke="#c8a55e" stroke-width="3.5" stroke-linejoin="round"/>
  <!-- Front windshield -->
  <path d="M295 125 L335 152 L350 175 L295 175 Z" fill="none" stroke="#c8a55e" stroke-width="2.5" stroke-linejoin="round"/>
  <!-- Side windows row 1 -->
  <rect x="165" y="130" width="55" height="38" rx="4" fill="none" stroke="#c8a55e" stroke-width="2.5"/>
  <rect x="228" y="130" width="55" height="38" rx="4" fill="none" stroke="#c8a55e" stroke-width="2.5"/>
  <!-- Rear section -->
  <rect x="70" y="165" width="85" height="43" rx="4" fill="none" stroke="#c8a55e" stroke-width="2.5"/>
  <!-- Front wheel -->
  <circle cx="310" cy="248" r="32" fill="none" stroke="#c8a55e" stroke-width="3"/>
  <circle cx="310" cy="248" r="14" fill="none" stroke="#c8a55e" stroke-width="2"/>
  <!-- Rear wheel -->
  <circle cx="115" cy="248" r="32" fill="none" stroke="#c8a55e" stroke-width="3"/>
  <circle cx="115" cy="248" r="14" fill="none" stroke="#c8a55e" stroke-width="2"/>
  <!-- Ground line -->
  <line x1="40" y1="280" x2="390" y2="280" stroke="#c8a55e" stroke-width="1.5" stroke-dasharray="8 6"/>
  <!-- 7 persons indicator -->
  <text x="118" y="215" text-anchor="middle" font-family="Arial, sans-serif" font-size="22" font-weight="bold" fill="#c8a55e">7P</text>
</svg>
